<?xml version="1.0" encoding="UTF-8"?>
<svg version="1.1" xmlns="http://www.w3.org/2000/svg" width="500" height="500">
<path d="M0 0 C0.96035156 0.63808594 1.92070312 1.27617187 2.91015625 1.93359375 C8.14549112 5.47536038 8.14549112 5.47536038 10 7 C10 7.66 10 8.32 10 9 C10.66 9 11.32 9 12 9 C12 9.66 12 10.32 12 11 C12.66 11 13.32 11 14 11 C14 11.66 14 12.32 14 13 C14.66 13 15.32 13 16 13 C17.51093179 14.92794897 18.89091587 16.84342007 20.25 18.875 C20.84627197 19.75768555 20.84627197 19.75768555 21.45458984 20.65820312 C22.64533582 22.43302514 23.82309287 24.21598225 25 26 C25.64710938 26.96164063 26.29421875 27.92328125 26.9609375 28.9140625 C27.51007813 29.76742187 28.05921875 30.62078125 28.625 31.5 C29.11226562 32.2528125 29.59953125 33.005625 30.1015625 33.78125 C31.27422365 36.67721319 31.04230867 38.07316002 30 41 C28.3984375 42.95703125 28.3984375 42.95703125 26.375 44.8125 C22.82347033 48.16636824 19.64770553 51.66513652 16.54296875 55.43359375 C15 57 15 57 12 58 C12 58.66 12 59.32 12 60 C11.34 60 10.68 60 10 60 C9.73195557 60.59474121 9.46391113 61.18948242 9.18774414 61.80224609 C7.99020301 64.01812796 6.79681017 65.42079528 4.99609375 67.1640625 C4.13274414 68.01097656 4.13274414 68.01097656 3.25195312 68.875 C2.65318359 69.4525 2.05441406 70.03 1.4375 70.625 C0.24650616 71.78160151 -0.94240005 72.94035778 -2.12890625 74.1015625 C-2.65556885 74.61025879 -3.18223145 75.11895508 -3.72485352 75.64306641 C-5.1164217 76.99400105 -5.1164217 76.99400105 -6 79 C-6.66 79 -7.32 79 -8 79 C-8 79.66 -8 80.32 -8 81 C-12.3143749 84.86023017 -15.83337404 85.69583162 -21.59765625 85.453125 C-26.600778 84.50944675 -29.01916975 81.40585669 -31.875 77.3125 C-33 75 -33 75 -33 73 C-33.66 73 -34.32 73 -35 73 C-35 72.34 -35 71.68 -35 71 C-35.66 71 -36.32 71 -37 71 C-37 70.34 -37 69.68 -37 69 C-37.5465625 68.73316406 -38.093125 68.46632813 -38.65625 68.19140625 C-40.32334217 67.34396773 -41.96747518 66.45069557 -43.59375 65.52734375 C-53.23494358 60.25319618 -63.16307177 58.48428452 -74 61 C-76.02915769 61.93942486 -78.03875312 62.92598385 -80 64 C-80.99 64 -81.98 64 -83 64 C-83 64.66 -83 65.32 -83 66 C-84.64453125 67.33203125 -84.64453125 67.33203125 -86.8125 68.8125 C-90.16979887 71.22241295 -92.04701895 73.31103579 -94 77 C-94.66 77 -95.32 77 -96 77 C-96.12375 77.556875 -96.2475 78.11375 -96.375 78.6875 C-97 81 -97 81 -98.015625 83.19140625 C-100.35536717 89.86709918 -100.15548461 99.19387717 -97.5625 105.8125 C-92.73139643 114.87722083 -84.11384487 122.70638915 -75.76953125 128.56640625 C-75.18558594 129.03949219 -74.60164063 129.51257813 -74 130 C-74 130.66 -74 131.32 -74 132 C-73.34 132 -72.68 132 -72 132 C-72 132.66 -72 133.32 -72 134 C-71.34 134 -70.68 134 -70 134 C-70 134.66 -70 135.32 -70 136 C-69.42765625 136.24363281 -68.8553125 136.48726562 -68.265625 136.73828125 C-65.59566462 138.22517298 -63.86170993 139.98083908 -61.75 142.1875 C-58.78252111 145.20875528 -55.8109426 148.20177687 -52.6875 151.0625 C-52.07261719 151.63097656 -51.45773438 152.19945312 -50.82421875 152.78515625 C-48.81040309 154.36952589 -48.81040309 154.36952589 -45 154 C-44.34 153.01 -43.68 152.02 -43 151 C-42.34 151 -41.68 151 -41 151 C-41 150.34 -41 149.68 -41 149 C-40.34 149 -39.68 149 -39 149 C-39 148.34 -39 147.68 -39 147 C-38.34 147 -37.68 147 -37 147 C-36.74025391 146.42024414 -36.48050781 145.84048828 -36.21289062 145.24316406 C-34.02134313 141.19003636 -30.6473156 138.07968342 -27.5 134.75 C-26.81035156 134.00492188 -26.12070312 133.25984375 -25.41015625 132.4921875 C-24.41822266 131.43644531 -24.41822266 131.43644531 -23.40625 130.359375 C-22.49842773 129.39209473 -22.49842773 129.39209473 -21.57226562 128.40527344 C-20 127 -20 127 -18 127 C-17.740979 126.41428223 -17.48195801 125.82856445 -17.21508789 125.22509766 C-15.90997874 122.83515094 -14.50660672 121.2928166 -12.55859375 119.3984375 C-11.55989258 118.41617188 -11.55989258 118.41617188 -10.54101562 117.4140625 C-9.84685547 116.74117187 -9.15269531 116.06828125 -8.4375 115.375 C-7.05901463 114.03088131 -5.68260599 112.68462847 -4.30859375 111.3359375 C-3.69814209 110.74345215 -3.08769043 110.1509668 -2.45874023 109.54052734 C-0.90189218 108.04565952 -0.90189218 108.04565952 0 106 C0.66 106 1.32 106 2 106 C2 105.34 2 104.68 2 104 C2.66 104 3.32 104 4 104 C4 103.34 4 102.68 4 102 C5.98260426 100.31267723 7.9832342 98.64633943 10 97 C10.33 96.34 10.66 95.68 11 95 C11.66 95 12.32 95 13 95 C13 94.34 13 93.68 13 93 C13.66 93 14.32 93 15 93 C15.22171875 92.44957031 15.4434375 91.89914063 15.671875 91.33203125 C17.42726924 88.24976548 19.70070621 86.14972775 22.25 83.6875 C25.50940048 80.51427919 28.66979039 77.32969034 31.5625 73.8125 C32.7690625 72.4203125 32.7690625 72.4203125 34 71 C34.66 71 35.32 71 36 71 C36.35578125 70.15695313 36.35578125 70.15695313 36.71875 69.296875 C38.28947697 66.48105958 40.21471464 64.52044584 42.5 62.25 C43.2940625 61.45078125 44.088125 60.6515625 44.90625 59.828125 C47 58 47 58 49 58 C49.309375 57.38125 49.61875 56.7625 49.9375 56.125 C50.625 54.75 51.3125 53.375 52 52 C52.66 52 53.32 52 54 52 C54 51.34 54 50.68 54 50 C54.66 50 55.32 50 56 50 C56 49.34 56 48.68 56 48 C56.66 48 57.32 48 58 48 C58 47.34 58 46.68 58 46 C58.66 46 59.32 46 60 46 C60.27714844 45.40960938 60.55429687 44.81921875 60.83984375 44.2109375 C64.99913363 36.28447935 72.05876124 31.41805301 79.9375 27.5625 C85.77889983 26.48958983 91.00811186 26.98526453 96.3125 29.6875 C102.31741656 34.85452123 105.48011835 39.40771209 106.375 47.3125 C105.89049113 52.07683721 104.15091334 55.76538936 102 60 C101.34 60 100.68 60 100 60 C99.71125 60.763125 99.4225 61.52625 99.125 62.3125 C98 65 98 65 96 68 C95.34 68 94.68 68 94 68 C93.740979 68.56315918 93.48195801 69.12631836 93.21508789 69.70654297 C91.86925688 72.24677534 90.29868743 74.40712714 88.55859375 76.6953125 C87.89279297 77.57574219 87.22699219 78.45617187 86.54101562 79.36328125 C85.49977539 80.73033203 85.49977539 80.73033203 84.4375 82.125 C83.05979611 83.93904039 81.68342551 85.7540944 80.30859375 87.5703125 C79.69814209 88.37227051 79.08769043 89.17422852 78.45874023 90.00048828 C76.96483431 91.93211032 76.96483431 91.93211032 76 94 C75.34 94 74.68 94 74 94 C73.79375 94.680625 73.5875 95.36125 73.375 96.0625 C71.8743302 99.2684764 70.07085209 101.34530062 67.72265625 103.953125 C65.04707037 107.1322792 62.80654171 110.59642007 60.515625 114.05859375 C60.01546875 114.69925781 59.5153125 115.33992187 59 116 C58.34 116 57.68 116 57 116 C56.72220703 116.58426758 56.44441406 117.16853516 56.15820312 117.77050781 C54.29840937 121.35053239 51.87766958 124.49990385 49.5 127.75 C49.00113281 128.44738281 48.50226563 129.14476562 47.98828125 129.86328125 C47.50746094 130.52199219 47.02664063 131.18070313 46.53125 131.859375 C46.09361328 132.46233398 45.65597656 133.06529297 45.20507812 133.68652344 C44.80740234 134.1199707 44.40972656 134.55341797 44 135 C43.34 135 42.68 135 42 135 C41.63068359 136.07701172 41.63068359 136.07701172 41.25390625 137.17578125 C39.85883684 140.31794692 38.13528193 142.55095942 35.9375 145.1875 C33.19079836 148.41282987 33.19079836 148.41282987 31 152 C30.34 152 29.68 152 29 152 C28.34 153.65 27.68 155.3 27 157 C26.34 157 25.68 157 25 157 C24.64421875 157.78117187 24.64421875 157.78117187 24.28125 158.578125 C22.58076777 161.79245117 20.55778691 164.75864843 18.5 167.75 C17.89478516 168.65298828 17.89478516 168.65298828 17.27734375 169.57421875 C16.23779729 171.08722202 15.12411157 172.54872163 14 174 C13.34 174 12.68 174 12 174 C11.63068359 175.07701172 11.63068359 175.07701172 11.25390625 176.17578125 C9.85883684 179.31794692 8.13528193 181.55095942 5.9375 184.1875 C3.19079836 187.41282987 3.19079836 187.41282987 1 191 C0.34 191 -0.32 191 -1 191 C-1.36931641 192.07701172 -1.36931641 192.07701172 -1.74609375 193.17578125 C-3.14116316 196.31794692 -4.86471807 198.55095942 -7.0625 201.1875 C-9.80920164 204.41282987 -9.80920164 204.41282987 -12 208 C-12.66 208 -13.32 208 -14 208 C-14.66 209.65 -15.32 211.3 -16 213 C-16.66 213 -17.32 213 -18 213 C-18.36931641 214.07701172 -18.36931641 214.07701172 -18.74609375 215.17578125 C-20.14116316 218.31794692 -21.86471807 220.55095942 -24.0625 223.1875 C-26.80920164 226.41282987 -26.80920164 226.41282987 -29 230 C-29.66 230 -30.32 230 -31 230 C-31.34611328 231.04607422 -31.34611328 231.04607422 -31.69921875 232.11328125 C-33.26056305 235.57824654 -35.39008673 238.30129627 -37.8125 241.1875 C-38.23853516 241.72052734 -38.66457031 242.25355469 -39.10351562 242.80273438 C-41.77936515 246.02104054 -43.87289958 248.09314834 -48 249 C-53.50329424 248.81428703 -56.33468361 247.47182269 -60.4375 243.875 C-61.37078125 243.06675781 -62.3040625 242.25851562 -63.265625 241.42578125 C-64.16796875 240.62527344 -65.0703125 239.82476562 -66 239 C-66.81984375 238.31292969 -67.6396875 237.62585938 -68.484375 236.91796875 C-72.58096797 233.46782396 -72.58096797 233.46782396 -74 232 C-74 231.34 -74 230.68 -74 230 C-74.66 230 -75.32 230 -76 230 C-76 229.34 -76 228.68 -76 228 C-76.66 228 -77.32 228 -78 228 C-78 227.34 -78 226.68 -78 226 C-78.61875 225.690625 -79.2375 225.38125 -79.875 225.0625 C-81.25 224.375 -82.625 223.6875 -84 223 C-84 222.34 -84 221.68 -84 221 C-84.66 221 -85.32 221 -86 221 C-86 220.34 -86 219.68 -86 219 C-86.53109375 218.7834375 -87.0621875 218.566875 -87.609375 218.34375 C-90.88669285 216.50159748 -93.50802551 214.03862231 -96.25 211.5 C-96.80429688 211.00113281 -97.35859375 210.50226563 -97.9296875 209.98828125 C-99.3285008 208.7031646 -100.66944254 207.35566232 -102 206 C-102 205.34 -102 204.68 -102 204 C-102.58716797 203.73501709 -103.17433594 203.47003418 -103.77929688 203.19702148 C-106.07032901 201.96209068 -107.65555468 200.64260112 -109.53125 198.84765625 C-110.17707031 198.23599609 -110.82289063 197.62433594 -111.48828125 196.99414062 C-112.15214844 196.35669922 -112.81601563 195.71925781 -113.5 195.0625 C-114.82120177 193.80158608 -116.14406844 192.5424139 -117.46875 191.28515625 C-118.05076172 190.72707275 -118.63277344 190.16898926 -119.23242188 189.59399414 C-121.01414587 187.92578085 -121.01414587 187.92578085 -123.22070312 186.41967773 C-123.80787109 185.95118408 -124.39503906 185.48269043 -125 185 C-125 184.34 -125 183.68 -125 183 C-125.639375 182.731875 -126.27875 182.46375 -126.9375 182.1875 C-129 181 -129 181 -130 178 C-131.31246245 177.29313046 -132.64903169 176.63016413 -134 176 C-135.64746094 174.61132812 -135.64746094 174.61132812 -137.234375 173.03125 C-137.80800781 172.46019531 -138.38164062 171.88914062 -138.97265625 171.30078125 C-139.55917969 170.70652344 -140.14570313 170.11226562 -140.75 169.5 C-141.35199219 168.90574219 -141.95398438 168.31148437 -142.57421875 167.69921875 C-143.14269531 167.12816406 -143.71117187 166.55710937 -144.296875 165.96875 C-145.07562988 165.18661133 -145.07562988 165.18661133 -145.87011719 164.38867188 C-147 163 -147 163 -147 161 C-147.66 161 -148.32 161 -149 161 C-149 160.34 -149 159.68 -149 159 C-149.66 159 -150.32 159 -151 159 C-153.58129799 155.50061149 -155.73284248 151.70859241 -158 148 C-158.49886719 147.25621094 -158.99773437 146.51242187 -159.51171875 145.74609375 C-163.12278981 140.21571369 -165.69071929 134.3418705 -168.1875 128.25 C-168.52064209 127.45279541 -168.85378418 126.65559082 -169.19702148 125.83422852 C-173.95945294 113.84851657 -175.54091853 101.96461759 -175.4375 89.125 C-175.43065186 87.81088135 -175.42380371 86.4967627 -175.41674805 85.14282227 C-175.25692776 75.47399396 -174.28116558 67.10603606 -171 58 C-170.61457031 56.86046875 -170.22914063 55.7209375 -169.83203125 54.546875 C-165.92424403 43.67083289 -160.480778 32.88824397 -153 24 C-152.34 24 -151.68 24 -151 24 C-150.34 22.35 -149.68 20.7 -149 19 C-148.34 19 -147.68 19 -147 19 C-147 18.34 -147 17.68 -147 17 C-146.34 17 -145.68 17 -145 17 C-145 16.34 -145 15.68 -145 15 C-144.34 15 -143.68 15 -143 15 C-143 14.34 -143 13.68 -143 13 C-142.34 13 -141.68 13 -141 13 C-141 12.34 -141 11.68 -141 11 C-137.18175791 7.76967675 -133.0618491 4.91543913 -129 2 C-128.24976563 1.44570312 -127.49953125 0.89140625 -126.7265625 0.3203125 C-116.78747938 -6.72463147 -105.75311499 -11.01986841 -94.125 -14.375 C-93.2577832 -14.62572266 -92.39056641 -14.87644531 -91.49707031 -15.13476562 C-60.90960097 -23.53958881 -26.05003728 -17.80779036 0 0 Z " fill="#C61B47" transform="translate(296,136)"/>
<path d="M0 0 C-0.66 0.66 -1.32 1.32 -2 2 C-2.56460938 1.69191406 -3.12921875 1.38382812 -3.7109375 1.06640625 C-6.04745442 -0.0221076 -8.09933407 -0.57299797 -10.625 -1.0625 C-11.40101563 -1.21847656 -12.17703125 -1.37445313 -12.9765625 -1.53515625 C-22.11835826 -2.94067782 -31.13341552 -3.15397048 -40.375 -3.125 C-42.26025391 -3.13080078 -42.26025391 -3.13080078 -44.18359375 -3.13671875 C-45.38886719 -3.13542969 -46.59414062 -3.13414063 -47.8359375 -3.1328125 C-49.46861572 -3.13112061 -49.46861572 -3.13112061 -51.13427734 -3.12939453 C-53.60227355 -3.01795834 -55.64832007 -2.71609969 -58 -2 C-58.33 -0.68 -58.66 0.64 -59 2 C-64.65735415 3.55577239 -67.79666866 2.24281523 -73 0 C-72 -2 -72 -2 -69.8125 -2.81640625 C-68.884375 -3.06261719 -67.95625 -3.30882813 -67 -3.5625 C-66.0925 -3.81128906 -65.185 -4.06007813 -64.25 -4.31640625 C-43.07436066 -8.77041693 -20.34200285 -6.85835121 0 0 Z " fill="#B4435F" transform="translate(273,124)"/>
<path d="M0 0 C0.33 0.99 0.66 1.98 1 3 C0 5 -1 7 -2 9 C-2.7136724 12.73771834 -2.7136724 12.73771834 -3 16 C-3.66 16 -4.32 16 -5 16 C-5 16.66 -5 17.32 -5 18 C-5.99 18.33 -6.98 18.66 -8 19 C-9.0209375 20.0209375 -9.0209375 20.0209375 -10.0625 21.0625 C-10.701875 21.701875 -11.34125 22.34125 -12 23 C-12.66 23 -13.32 23 -14 23 C-11.2987577 15.38740806 -6.97964545 8.32549557 -2 2 C-1.34 2 -0.68 2 0 2 C0 1.34 0 0.68 0 0 Z " fill="#C12F54" transform="translate(145,158)"/>
<path d="M0 0 C2.31211538 1.8094816 2.99360144 2.97881755 3.85546875 5.83203125 C4 9 4 9 2.3046875 11.37890625 C1.50289063 12.09949219 0.70109375 12.82007813 -0.125 13.5625 C-1.36443359 14.7071875 -1.36443359 14.7071875 -2.62890625 15.875 C-3.41136719 16.57625 -4.19382812 17.2775 -5 18 C-6.02900427 19.01259646 -7.0519699 20.03146639 -8.0625 21.0625 C-8.701875 21.701875 -9.34125 22.34125 -10 23 C-10 21.68 -10 20.36 -10 19 C-9.01 19 -8.02 19 -7 19 C-7.33 17.02 -7.66 15.04 -8 13 C-7.01 13 -6.02 13 -5 13 C-4.938125 12.38125 -4.87625 11.7625 -4.8125 11.125 C-4 9 -4 9 -1.4375 7.75 C-0.633125 7.5025 0.17125 7.255 1 7 C0.67 4.69 0.34 2.38 0 0 Z " fill="#BD4461" transform="translate(323,167)"/>
<path d="M0 0 C1.32 0 2.64 0 4 0 C3.42218058 4.06399659 1.29862689 6.49407094 -1.25 9.625 C-2.01828125 10.58664062 -2.7865625 11.54828125 -3.578125 12.5390625 C-6.05692866 15.05784687 -7.61693678 16.09857385 -11 17 C-17.43636364 16.56363636 -17.43636364 16.56363636 -20 14 C-17.69 14 -15.38 14 -13 14 C-13 13.67 -13 13.34 -13 13 C-10.69 13 -8.38 13 -6 13 C-5.87625 12.21625 -5.7525 11.4325 -5.625 10.625 C-5 8 -5 8 -3 6 C-2.01 6 -1.02 6 0 6 C0 4.02 0 2.04 0 0 Z " fill="#C45976" transform="translate(259,368)"/>
<path d="M0 0 C0.33 0.66 0.66 1.32 1 2 C-4.27380594 9.60048503 -9.22038667 15.8654552 -17 21 C-17.66 20.67 -18.32 20.34 -19 20 C-18.236875 19.2575 -17.47375 18.515 -16.6875 17.75 C-14.04428801 15.176446 -14.04428801 15.176446 -12.3125 12.6875 C-11.879375 12.130625 -11.44625 11.57375 -11 11 C-10.34 11 -9.68 11 -9 11 C-8.74476563 10.41734375 -8.48953125 9.8346875 -8.2265625 9.234375 C-6.88258913 6.78611777 -5.38189704 5.18256752 -3.375 3.25 C-2.74335938 2.63640625 -2.11171875 2.0228125 -1.4609375 1.390625 C-0.73777344 0.70226562 -0.73777344 0.70226562 0 0 Z " fill="#B63F5D" transform="translate(341,196)"/>
<path d="M0 0 C-0.50603992 2.16874252 -0.99983813 3.99967627 -2 6 C-2.66 6 -3.32 6 -4 6 C-4.226875 6.721875 -4.45375 7.44375 -4.6875 8.1875 C-6.24831013 11.53209313 -8.3031287 13.51603959 -11 16 C-11.44041451 10.62694301 -11.44041451 10.62694301 -11 8 C-8.5 6 -8.5 6 -6 5 C-6.33 3.68 -6.66 2.36 -7 1 C-4.50935112 0.31292445 -2.62113708 0 0 0 Z " fill="#C24563" transform="translate(312,304)"/>
<path d="M0 0 C0.33 0 0.66 0 1 0 C1.03738281 0.97839844 1.07476562 1.95679688 1.11328125 2.96484375 C1.48856382 10.44841967 2.16997558 16.98646123 5 24 C3 24 1 24 -1 24 C-0.814375 23.113125 -0.62875 22.22625 -0.4375 21.3125 C-0.00146547 18.01109566 -0.34320832 16.21098153 -1 13 C-1.38406828 4.15220484 -1.38406828 4.15220484 0 0 Z " fill="#B4415C" transform="translate(195,222)"/>
<path d="M0 0 C1.32 0 2.64 0 4 0 C2.60612062 4.06487338 0.68116942 6.89609258 -2.0625 10.1875 C-4.80920164 13.41282987 -4.80920164 13.41282987 -7 17 C-7.66 17 -8.32 17 -9 17 C-9.33 17.66 -9.66 18.32 -10 19 C-10 17.35 -10 15.7 -10 14 C-9.34 14 -8.68 14 -8 14 C-8 13.34 -8 12.68 -8 12 C-7.34 12 -6.68 12 -6 12 C-5.34 10.02 -4.68 8.04 -4 6 C-3.01 6 -2.02 6 -1 6 C-0.67 4.02 -0.34 2.04 0 0 Z " fill="#BC4F69" transform="translate(291,327)"/>
<path d="M0 0 C1.01771484 0.10441406 2.03542969 0.20882812 3.08398438 0.31640625 C5.5783313 0.57403833 8.07071323 0.84384918 10.5625 1.125 C6.96069475 3.09900632 4.97707458 3.20763233 0.875 2.6875 C-5.87870918 1.98656559 -11.8840608 2.39887093 -18.4375 4.125 C-18.4375 3.135 -18.4375 2.145 -18.4375 1.125 C-12.07711599 -1.28356056 -6.68056101 -0.75628993 0 0 Z " fill="#B5405D" transform="translate(236.4375,193.875)"/>
<path d="M0 0 C0.33 1.32 0.66 2.64 1 4 C0.34 4 -0.32 4 -1 4 C-1.66 5.32 -2.32 6.64 -3 8 C-3.66 8 -4.32 8 -5 8 C-5 8.99 -5 9.98 -5 11 C-9.22222222 14 -9.22222222 14 -12 14 C-12 14.66 -12 15.32 -12 16 C-12.66 16 -13.32 16 -14 16 C-12.40907948 11.86360664 -9.39525082 8.76786752 -6 6 C-5.34 6 -4.68 6 -4 6 C-3.566875 5.071875 -3.566875 5.071875 -3.125 4.125 C-2 2 -2 2 0 0 Z " fill="#C25873" transform="translate(282,257)"/>
<path d="M0 0 C0.99 0.33 1.98 0.66 3 1 C-2.94 8.92 -2.94 8.92 -9 17 C-9.66 15.68 -10.32 14.36 -11 13 C-9.37660195 11.29115995 -7.70680947 9.62553283 -6 8 C-5.34 8 -4.68 8 -4 8 C-4.0825 7.236875 -4.165 6.47375 -4.25 5.6875 C-4 3 -4 3 -2.1875 1.125 C-1.465625 0.75375 -0.74375 0.3825 0 0 Z " fill="#BC4B69" transform="translate(349,254)"/>
<path d="M0 0 C0.33 1.32 0.66 2.64 1 4 C0.34 4 -0.32 4 -1 4 C-1.061875 4.7425 -1.12375 5.485 -1.1875 6.25 C-2.26975856 9.91302898 -3.81356648 10.97226958 -7 13 C-9.8125 13.75 -9.8125 13.75 -12 14 C-10.625 11.5 -10.625 11.5 -9 9 C-8.34 9 -7.68 9 -7 9 C-7 8.34 -7 7.68 -7 7 C-6.34 7 -5.68 7 -5 7 C-5 6.34 -5 5.68 -5 5 C-4.34 5 -3.68 5 -3 5 C-2.690625 4.360625 -2.38125 3.72125 -2.0625 3.0625 C-1 1 -1 1 0 0 Z " fill="#BD4763" transform="translate(262,278)"/>
<path d="M0 0 C2 3 2 3 1.75 5.4375 C1.05282249 7.81952314 0.20252143 9.83546142 -1 12 C-1.66 12 -2.32 12 -3 12 C-3.33 12.99 -3.66 13.98 -4 15 C-4.99 14.34 -5.98 13.68 -7 13 C-7 12.01 -7 11.02 -7 10 C-5.68 10.33 -4.36 10.66 -3 11 C-3 8.69 -3 6.38 -3 4 C-2.34 3.67 -1.68 3.34 -1 3 C-0.67 2.01 -0.34 1.02 0 0 Z " fill="#BD4060" transform="translate(399,184)"/>
<path d="M0 0 C1.32 1.65 2.64 3.3 4 5 C1.69 5.66 -0.62 6.32 -3 7 C-3 7.99 -3 8.98 -3 10 C-4.98 10.99 -4.98 10.99 -7 12 C-7.67578125 10.23046875 -7.67578125 10.23046875 -8 8 C-6.85546875 6.11328125 -6.85546875 6.11328125 -5.1875 4.3125 C-4.64480469 3.71050781 -4.10210937 3.10851562 -3.54296875 2.48828125 C-2 1 -2 1 0 0 Z " fill="#BE3A5B" transform="translate(366,170)"/>
<path d="M0 0 C2.3125 0.1875 2.3125 0.1875 4 1 C2.22054913 5.04420651 -0.39529673 8.46078487 -3 12 C-3.144375 11.401875 -3.28875 10.80375 -3.4375 10.1875 C-3.8872439 8.43849596 -4.42892341 6.71322977 -5 5 C-2.75 2.4375 -2.75 2.4375 0 0 Z " fill="#BB3757" transform="translate(317,292)"/>
<path d="M0 0 C0 0.33 0 0.66 0 1 C-2.64 1 -5.28 1 -8 1 C-8.33 1.99 -8.66 2.98 -9 4 C-10.9375 4.5625 -10.9375 4.5625 -13 5 C-13.66 5.66 -14.32 6.32 -15 7 C-16.32 6.34 -17.64 5.68 -19 5 C-17.75443908 4.18071114 -16.50333365 3.36984814 -15.25 2.5625 C-14.20585937 1.88380859 -14.20585937 1.88380859 -13.140625 1.19140625 C-8.51569254 -1.38268937 -5.17114953 -0.89500665 0 0 Z " fill="#B43E5D" transform="translate(386,164)"/>
<path d="M0 0 C0.33 1.65 0.66 3.3 1 5 C-2.40931897 6.13643966 -3.00335456 5.86747764 -6.1875 4.5625 C-6.90292969 4.27503906 -7.61835938 3.98757812 -8.35546875 3.69140625 C-8.89816406 3.46324219 -9.44085938 3.23507813 -10 3 C-8.0130571 -0.97388579 -3.91761109 -0.08705802 0 0 Z " fill="#BB2B4E" transform="translate(210,121)"/>
<path d="M0 0 C0.66 0.33 1.32 0.66 2 1 C1.125 5.75 1.125 5.75 0 8 C-0.66 8 -1.32 8 -2 8 C-2.33 9.32 -2.66 10.64 -3 12 C-4.32 11.67 -5.64 11.34 -7 11 C-6.66226562 10.54109375 -6.32453125 10.0821875 -5.9765625 9.609375 C-2.63691049 5.01807574 -2.63691049 5.01807574 0 0 Z " fill="#C41E48" transform="translate(343,194)"/>
<path d="M0 0 C0.66 0.33 1.32 0.66 2 1 C2 2.65 2 4.3 2 6 C0.35 5.67 -1.3 5.34 -3 5 C-3.061875 5.763125 -3.12375 6.52625 -3.1875 7.3125 C-4 10 -4 10 -6.4375 11.875 C-7.7059375 12.431875 -7.7059375 12.431875 -9 13 C-9.66 12.67 -10.32 12.34 -11 12 C-9.88200014 10.66079162 -8.75538103 9.32877444 -7.625 8 C-6.99851562 7.2575 -6.37203125 6.515 -5.7265625 5.75 C-5.15679687 5.1725 -4.58703125 4.595 -4 4 C-3.34 4 -2.68 4 -2 4 C-2 3.34 -2 2.68 -2 2 C-1.34 2 -0.68 2 0 2 C0 1.34 0 0.68 0 0 Z " fill="#C0526E" transform="translate(300,238)"/>
<path d="M0 0 C3.44312464 0.31301133 5.48897494 0.57657924 8.1875 2.8125 C9.0846875 3.8953125 9.0846875 3.8953125 10 5 C10.8971875 6.0209375 10.8971875 6.0209375 11.8125 7.0625 C12.204375 7.701875 12.59625 8.34125 13 9 C12.67 9.99 12.34 10.98 12 12 C11.67 11.01 11.34 10.02 11 9 C9.69099 8.28675737 8.35314956 7.62546661 7 7 C5.71896512 6.018394 4.46778488 4.99655651 3.25 3.9375 C2.63640625 3.41027344 2.0228125 2.88304687 1.390625 2.33984375 C0.93171875 1.89769531 0.4728125 1.45554687 0 1 C0 0.67 0 0.34 0 0 Z " fill="#B84F67" transform="translate(183,331)"/>
<path d="M0 0 C1.32 0 2.64 0 4 0 C3.38801624 3.43950364 2.07941153 5.51564485 -0.0625 8.25 C-0.61035156 8.95640625 -1.15820312 9.6628125 -1.72265625 10.390625 C-2.14417969 10.92171875 -2.56570313 11.4528125 -3 12 C-3.66 10.68 -4.32 9.36 -5 8 C-4.34 7.34 -3.68 6.68 -3 6 C-2.01 6 -1.02 6 0 6 C0 4.02 0 2.04 0 0 Z " fill="#C04C69" transform="translate(259,368)"/>
<path d="M0 0 C1.98 0 3.96 0 6 0 C5.40606618 1.29640378 4.79942011 2.58698839 4.1875 3.875 C3.85105469 4.59429687 3.51460938 5.31359375 3.16796875 6.0546875 C2 8 2 8 -1 10 C-1.33 8.35 -1.66 6.7 -2 5 C-1.01 4.67 -0.02 4.34 1 4 C0.67 2.68 0.34 1.36 0 0 Z " fill="#BF4665" transform="translate(273,348)"/>
<path d="M0 0 C0.33 0.66 0.66 1.32 1 2 C1.60328125 2.29648437 2.2065625 2.59296875 2.828125 2.8984375 C5.30329117 4.15382753 6.83031196 5.63147781 8.75 7.625 C9.36359375 8.25664062 9.9771875 8.88828125 10.609375 9.5390625 C11.29773438 10.26222656 11.29773438 10.26222656 12 11 C11.34 11.66 10.68 12.32 10 13 C8.51172574 11.59290434 7.03466815 10.17393799 5.5625 8.75 C4.73878906 7.96109375 3.91507813 7.1721875 3.06640625 6.359375 C1.08114793 4.09265283 0.3699641 2.9328063 0 0 Z " fill="#BD506A" transform="translate(225,270)"/>
<path d="M0 0 C-1.49920512 3.11373372 -3.08152136 6.12228205 -5 9 C-5.66 9 -6.32 9 -7 9 C-7.33 9.99 -7.66 10.98 -8 12 C-8.33 9.69 -8.66 7.38 -9 5 C-7.35 4.67 -5.7 4.34 -4 4 C-4 3.01 -4 2.02 -4 1 C-2 0 -2 0 0 0 Z " fill="#BA4663" transform="translate(207,204)"/>
<path d="M0 0 C4.27878027 2.03751441 8.11282869 4.31600076 12 7 C9 9 9 9 7 9 C7 8.01 7 7.02 7 6 C6.21625 5.938125 5.4325 5.87625 4.625 5.8125 C3.75875 5.544375 2.8925 5.27625 2 5 C0.6875 2.4375 0.6875 2.4375 0 0 Z " fill="#B9405D" transform="translate(290,133)"/>
<path d="M0 0 C2.31 0.66 4.62 1.32 7 2 C7 3.65 7 5.3 7 7 C7.66 7.33 8.32 7.66 9 8 C6 8 6 8 4 7 C4 6.34 4 5.68 4 5 C3.01 4.67 2.02 4.34 1 4 C0.3125 1.9375 0.3125 1.9375 0 0 Z " fill="#BB4161" transform="translate(167,314)"/>
<path d="M0 0 C0.99 0.33 1.98 0.66 3 1 C3.25 3.8125 3.25 3.8125 3 7 C1 8.875 1 8.875 -1 10 C-1.33 7.69 -1.66 5.38 -2 3 C-1.34 3 -0.68 3 0 3 C0 2.01 0 1.02 0 0 Z " fill="#C23054" transform="translate(330,273)"/>
<path d="M0 0 C0.33 0.99 0.66 1.98 1 3 C0.01 3 -0.98 3 -2 3 C-2.33 4.32 -2.66 5.64 -3 7 C-3.66 7 -4.32 7 -5 7 C-5.99 5.02 -6.98 3.04 -8 1 C-5.07175348 0.02391783 -3.04386724 -0.08226668 0 0 Z " fill="#CA3F61" transform="translate(217,119)"/>
<path d="M0 0 C-0.50603992 2.16874252 -0.99983813 3.99967627 -2 6 C-3.32 5.67 -4.64 5.34 -6 5 C-6.33 3.68 -6.66 2.36 -7 1 C-4.50935112 0.31292445 -2.62113708 0 0 0 Z " fill="#C2365A" transform="translate(312,304)"/>
<path d="M0 0 C0.66 0.33 1.32 0.66 2 1 C-3.0940919 7.86214442 -3.0940919 7.86214442 -6.875 8.4375 C-7.57625 8.293125 -8.2775 8.14875 -9 8 C-7.1875 5.5 -7.1875 5.5 -5 3 C-4.01 3 -3.02 3 -2 3 C-2 2.34 -2 1.68 -2 1 C-1.34 0.67 -0.68 0.34 0 0 Z " fill="#B93254" transform="translate(272,270)"/>
<path d="M0 0 C0.33 0.99 0.66 1.98 1 3 C-0.97779587 6.8764799 -2.19654895 8.6600784 -6.25 10.375 C-7.61125 10.684375 -7.61125 10.684375 -9 11 C-7.7260411 8.96166576 -6.38938077 6.96147874 -5 5 C-4.34 5 -3.68 5 -3 5 C-3 4.34 -3 3.68 -3 3 C-2.34 3 -1.68 3 -1 3 C-0.67 2.01 -0.34 1.02 0 0 Z " fill="#B94766" transform="translate(312,226)"/>
<path d="M0 0 C0.66 0 1.32 0 2 0 C2.8125 1.625 2.8125 1.625 3 4 C1.53181864 6.24609835 -0.15852858 8.02378677 -2 10 C-3 7 -3 7 -3 4 C-2.34 4 -1.68 4 -1 4 C-0.67 2.68 -0.34 1.36 0 0 Z " fill="#C04364" transform="translate(377,215)"/>
<path d="M0 0 C0.99 0 1.98 0 3 0 C2.52797514 4.24822374 0.03344482 6.19989709 -3 9 C-3 7.02 -3 5.04 -3 3 C-2.01 2.67 -1.02 2.34 0 2 C0 1.34 0 0.68 0 0 Z " fill="#BF4662" transform="translate(384,207)"/>
<path d="M0 0 C0.66 0 1.32 0 2 0 C0.7508258 3.45925163 -0.67527795 6.14693203 -3 9 C-4.32 8.67 -5.64 8.34 -7 8 C-5.625 6 -5.625 6 -4 4 C-3.34 4 -2.68 4 -2 4 C-2 3.34 -2 2.68 -2 2 C-1.34 2 -0.68 2 0 2 C0 1.34 0 0.68 0 0 Z " fill="#BF526D" transform="translate(352,184)"/>
<path d="M0 0 C0.33 0.66 0.66 1.32 1 2 C1.66 2 2.32 2 3 2 C3 1.34 3 0.68 3 0 C3.99 0 4.98 0 6 0 C5.34 1.32 4.68 2.64 4 4 C3.34 4 2.68 4 2 4 C2 4.66 2 5.32 2 6 C1.34 6 0.68 6 0 6 C-0.33 6.66 -0.66 7.32 -1 8 C-1.04241723 5.66705225 -1.04092937 3.33297433 -1 1 C-0.67 0.67 -0.34 0.34 0 0 Z " fill="#BE4762" transform="translate(306,190)"/>
<path d="M0 0 C0.66 0.33 1.32 0.66 2 1 C1.375 2.875 1.375 2.875 0 5 C-2.875 6.1875 -2.875 6.1875 -6 7 C-7.175625 7.309375 -7.175625 7.309375 -8.375 7.625 C-8.91125 7.74875 -9.4475 7.8725 -10 8 C-6.97727468 4.74475735 -3.74281699 2.38179263 0 0 Z " fill="#C15B76" transform="translate(173,134)"/>
<path d="M0 0 C2.25 0.125 2.25 0.125 5 1 C7.3125 4.0625 7.3125 4.0625 9 7 C6 7 6 7 4.39453125 5.46875 C3.87246094 4.8190625 3.35039062 4.169375 2.8125 3.5 C2.28269531 2.8503125 1.75289062 2.200625 1.20703125 1.53125 C0.80871094 1.0259375 0.41039062 0.520625 0 0 Z " fill="#B84762" transform="translate(150,299)"/>
<path d="M0 0 C0.33 0 0.66 0 1 0 C1.1953125 6.0546875 1.1953125 6.0546875 1 8 C0.34 8.66 -0.32 9.32 -1 10 C-1.66 9.67 -2.32 9.34 -3 9 C-2.01 6.03 -1.02 3.06 0 0 Z " fill="#C25770" transform="translate(130,181)"/>
<path d="M0 0 C1 3 1 3 -0.25 5.625 C-2 8 -2 8 -5 9 C-4.38722388 6.03824877 -3.74627478 4.61941217 -2 2 C-1.34 2 -0.68 2 0 2 C0 1.34 0 0.68 0 0 Z " fill="#BE516B" transform="translate(145,158)"/>
<path d="M0 0 C0 0.66 0 1.32 0 2 C-0.99 2.33 -1.98 2.66 -3 3 C-3.99 4.485 -3.99 4.485 -5 6 C-8 5 -8 5 -10 3 C-3.375 0 -3.375 0 0 0 Z " fill="#C15372" transform="translate(194,125)"/>
<path d="M0 0 C0.99 0 1.98 0 3 0 C3 0.66 3 1.32 3 2 C5.64 1.67 8.28 1.34 11 1 C10.67 1.99 10.34 2.98 10 4 C7.03 3.67 4.06 3.34 1 3 C0.67 2.01 0.34 1.02 0 0 Z " fill="#BA244A" transform="translate(237,379)"/>
<path d="M0 0 C1.65 0 3.3 0 5 0 C4.67 1.32 4.34 2.64 4 4 C4.99 4.33 5.98 4.66 7 5 C6.34 5.66 5.68 6.32 5 7 C3.29115995 5.37660195 1.62553283 3.70680947 0 2 C0 1.34 0 0.68 0 0 Z " fill="#C14E68" transform="translate(226,369)"/>
<path d="M0 0 C1.32 0.33 2.64 0.66 4 1 C4 1.66 4 2.32 4 3 C5.32 3.33 6.64 3.66 8 4 C8.33 5.32 8.66 6.64 9 8 C8.34 8 7.68 8 7 8 C7 7.34 7 6.68 7 6 C6.34 6 5.68 6 5 6 C5 5.34 5 4.68 5 4 C4.34 4 3.68 4 3 4 C3 3.34 3 2.68 3 2 C2.01 1.67 1.02 1.34 0 1 C0 0.67 0 0.34 0 0 Z " fill="#C05F76" transform="translate(215,360)"/>
<path d="M0 0 C3.53600465 1.91135386 5.78972846 3.62642766 8 7 C6.35 7 4.7 7 3 7 C2.67 5.35 2.34 3.7 2 2 C1.34 2 0.68 2 0 2 C0 1.34 0 0.68 0 0 Z " fill="#BD576D" transform="translate(209,256)"/>
<path d="M0 0 C0.66 0 1.32 0 2 0 C3.06775224 1.96466413 4.06553465 3.96855359 5 6 C4.67 6.66 4.34 7.32 4 8 C2 6.8125 2 6.8125 0 5 C-0.25 2.3125 -0.25 2.3125 0 0 Z " fill="#BC4D69" transform="translate(396,171)"/>
<path d="M0 0 C2.125 0.9375 2.125 0.9375 4 2 C3.67 2.99 3.34 3.98 3 5 C1.35 4.67 -0.3 4.34 -2 4 C-2 3.01 -2 2.02 -2 1 C-1.34 0.67 -0.68 0.34 0 0 Z " fill="#BE2E54" transform="translate(196,242)"/>
<path d="M0 0 C0.33 0 0.66 0 1 0 C1.36923077 5.53846154 1.36923077 5.53846154 -0.5 7.875 C-1.2425 8.431875 -1.2425 8.431875 -2 9 C-2.66 8.34 -3.32 7.68 -4 7 C-4 6.01 -4 5.02 -4 4 C-2.68 4.33 -1.36 4.66 0 5 C0 3.35 0 1.7 0 0 Z " fill="#B72F50" transform="translate(396,190)"/>
<path d="M0 0 C0.66 0 1.32 0 2 0 C2.33 2.97 2.66 5.94 3 9 C0 6 0 6 -0.1875 2.8125 C-0.125625 1.884375 -0.06375 0.95625 0 0 Z " fill="#C1244C" transform="translate(288,132)"/>
<path d="M0 0 C0.33 1.32 0.66 2.64 1 4 C1.66 4 2.32 4 3 4 C3.33 5.65 3.66 7.3 4 9 C3.01 9.33 2.02 9.66 1 10 C0.67 6.7 0.34 3.4 0 0 Z " fill="#C84E6C" transform="translate(121,235)"/>
<path d="M0 0 C1.32 0.33 2.64 0.66 4 1 C2.68 2.32 1.36 3.64 0 5 C-0.99 4.67 -1.98 4.34 -3 4 C-3 3.34 -3 2.68 -3 2 C-2.01 2 -1.02 2 0 2 C0 1.34 0 0.68 0 0 Z " fill="#BB4862" transform="translate(210,199)"/>
<path d="M0 0 C0.99 0.99 1.98 1.98 3 3 C1.68 4.32 0.36 5.64 -1 7 C-1.66 6.67 -2.32 6.34 -3 6 C-1.125 1.125 -1.125 1.125 0 0 Z " fill="#C4506F" transform="translate(137,169)"/>
<path d="M0 0 C-0.6875 1.9375 -0.6875 1.9375 -2 4 C-4.87939419 4.93580311 -6.25509788 5.37245106 -9 4 C-2.25 0 -2.25 0 0 0 Z " fill="#C25E77" transform="translate(184,129)"/>
<path d="M0 0 C2.01920337 1.30406884 4.01924973 2.63823419 6 4 C6 4.33 6 4.66 6 5 C3.69 5.33 1.38 5.66 -1 6 C-0.67 4.02 -0.34 2.04 0 0 Z " fill="#CA5876" transform="translate(244,288)"/>
<path d="M0 0 C0.99 0 1.98 0 3 0 C2.67 0.99 2.34 1.98 2 3 C-0.0625 3.6875 -0.0625 3.6875 -2 4 C-2 4.66 -2 5.32 -2 6 C-2.66 6 -3.32 6 -4 6 C-2.84826645 3.53199953 -1.95216435 1.95216435 0 0 Z " fill="#C06A80" transform="translate(272,267)"/>
<path d="M0 0 C0.625 1.875 0.625 1.875 1 4 C0.34 4.66 -0.32 5.32 -1 6 C-3.125 5.625 -3.125 5.625 -5 5 C-3.35 3.35 -1.7 1.7 0 0 Z " fill="#C2506A" transform="translate(288,251)"/>
<path d="M0 0 C0.66 0.33 1.32 0.66 2 1 C1.67 2.65 1.34 4.3 1 6 C0.01 6 -0.98 6 -2 6 C-1.34 4.02 -0.68 2.04 0 0 Z " fill="#BF2C52" transform="translate(343,194)"/>
<path d="M0 0 C1.32 0.99 2.64 1.98 4 3 C3.01 4.485 3.01 4.485 2 6 C1.01 6 0.02 6 -1 6 C-0.67 4.02 -0.34 2.04 0 0 Z " fill="#BA3858" transform="translate(265,360)"/>
<path d="M0 0 C-0.66 1.65 -1.32 3.3 -2 5 C-2.66 5 -3.32 5 -4 5 C-5.625 3 -5.625 3 -7 1 C-2.25 0 -2.25 0 0 0 Z " fill="#BB4360" transform="translate(325,288)"/>
<path d="M0 0 C0.33 0.66 0.66 1.32 1 2 C-0.32 3.65 -1.64 5.3 -3 7 C-3.99 6.67 -4.98 6.34 -6 6 C-4.02 4.02 -2.04 2.04 0 0 Z " fill="#BF6377" transform="translate(341,196)"/>
</svg>
